<!DOCTYPE svg PUBLIC "-//W3C//DTD SVG 1.1//EN" "http://www.w3.org/Graphics/SVG/1.1/DTD/svg11.dtd">
<!-- Uploaded to: SVG Repo, www.svgrepo.com, Transformed by: SVG Repo Mixer Tools -->
<svg width="800px" height="800px" viewBox="-6.24 -6.24 60.48 60.48" xmlns="http://www.w3.org/2000/svg" fill="#6245d9" stroke="#6245d9" stroke-width="4.8" transform="rotate(0)matrix(1, 0, 0, -1, 0, 0)">
<g id="SVGRepo_bgCarrier" stroke-width="0"/>
<g id="SVGRepo_tracerCarrier" stroke-linecap="round" stroke-linejoin="round" stroke="#CCCCCC" stroke-width="0.192"/>
<g id="SVGRepo_iconCarrier">
<defs>
<style>.a{fill:none;stroke:#6245d9;stroke-linecap:round;stroke-linejoin:round;}</style>
</defs>
<circle class="a" cx="24" cy="24" r="21.5"/>
<path class="a" d="M2.56,22.4c5.31,0,5.33,3.2,10.69,3.2S18.62,22.4,24,22.4s5.38,3.2,10.76,3.2,5.37-3.18,10.69-3.2"/>
<path class="a" d="M5.17,13.61c2.92.82,3.78,2.87,8.08,2.87,5.37,0,5.37-3.2,10.74-3.2s5.38,3.2,10.76,3.2c4.3,0,5.16-2.05,8.08-2.87"/>
<path class="a" d="M3.88,31.6c4,.5,4.5,3.12,9.37,3.12,5.37,0,5.37-3.2,10.74-3.2s5.38,3.2,10.76,3.2c4.87,0,5.33-2.63,9.37-3.12"/>
</g>
</svg>